# Blender v2.78 (sub 0) OBJ File: 'CHAHIN_SALT_AND_PEPPER.blend'
# www.blender.org
mtllib CHAHIN_SALT_AND_PEPPER.mtl
o Cube.009_Cube.010
v -0.060665 0.164393 0.060665
v -0.077053 0.164393 0.060665
v -0.073353 0.164393 0.073353
v -0.060665 0.164393 0.077053
v 0.077053 0.164393 0.060665
v 0.060665 0.164393 0.060665
v 0.060665 0.164393 0.077053
v 0.073353 0.164393 0.073353
v 0.073353 0.164393 -0.073353
v 0.060665 0.164393 -0.077053
v 0.060665 0.164393 -0.060665
v 0.077053 0.164393 -0.060665
v -0.060665 0.164393 -0.077053
v -0.073353 0.164393 -0.073353
v -0.077053 0.164393 -0.060665
v -0.060665 0.164393 -0.060665
v 0.041000 0.164393 -0.000000
v 0.049551 0.164393 0.008551
v 0.054240 0.164393 -0.000000
v 0.049551 0.164393 -0.008551
v -0.008551 0.164393 -0.049551
v 0.000000 0.164393 -0.041000
v 0.008551 0.164393 -0.049551
v 0.000000 0.164393 -0.054240
v -0.054240 0.164393 0.000000
v -0.049551 0.164393 0.008551
v -0.041000 0.164393 0.000000
v -0.049551 0.164393 -0.008551
v -0.008551 0.164393 0.049551
v 0.000000 0.164393 0.054240
v 0.008551 0.164393 0.049551
v 0.000000 0.164393 0.041000
v -0.161815 -0.484019 0.161816
v -0.106203 -0.005498 0.106203
v -0.161815 -0.484019 -0.161816
v -0.106203 -0.005498 -0.106203
v 0.161816 -0.484019 0.161816
v 0.106203 -0.005498 0.106203
v 0.161816 -0.484019 -0.161816
v 0.106203 -0.005498 -0.106203
v -0.122948 -0.005498 0.122948
v -0.122948 -0.005498 -0.122948
v 0.122948 -0.005498 -0.122948
v 0.122948 -0.005498 0.122948
v -0.115621 0.041385 0.115621
v -0.115621 0.041385 -0.115621
v 0.115621 0.041385 -0.115621
v 0.115621 0.041385 0.115621
v -0.144127 0.059173 0.144127
v -0.144127 0.059173 -0.144127
v 0.144127 0.059173 -0.144127
v 0.144127 0.059173 0.144127
v -0.144127 0.138114 0.144127
v -0.144127 0.138114 -0.144127
v 0.144127 0.138114 -0.144127
v 0.144127 0.138114 0.144127
v -0.122275 0.163200 0.122275
v -0.122275 0.163200 -0.122275
v 0.122275 0.163200 -0.122275
v 0.122275 0.163200 0.122275
v 0.000000 -0.484019 -0.209014
v 0.000000 -0.005498 -0.137180
v 0.000000 -0.484019 0.209014
v 0.000000 -0.005498 0.137180
v 0.000000 -0.005498 -0.158810
v 0.000000 -0.005498 0.158810
v 0.000000 0.041385 -0.149345
v 0.000000 0.041385 0.149345
v 0.000000 0.059173 -0.186166
v 0.000000 0.059173 0.186166
v 0.000000 0.138114 -0.186166
v 0.000000 0.138114 0.186166
v 0.000000 0.163200 -0.157941
v 0.000000 0.163200 0.157941
v -0.209014 -0.484019 -0.000000
v -0.137180 -0.005498 -0.000000
v 0.209014 -0.484019 -0.000000
v 0.137180 -0.005498 -0.000000
v -0.158810 -0.005498 -0.000000
v 0.158810 -0.005498 -0.000000
v -0.149345 0.041385 -0.000000
v 0.149345 0.041385 -0.000000
v -0.186166 0.059173 -0.000000
v 0.186166 0.059173 -0.000000
v -0.186166 0.138114 -0.000000
v 0.186166 0.138114 -0.000000
v -0.157941 0.163200 -0.000000
v 0.157941 0.163200 -0.000000
v 0.000000 0.163200 -0.000000
v -0.190210 -0.519845 -0.000000
v -0.147258 -0.519845 0.147258
v 0.000000 -0.519845 -0.190210
v -0.147258 -0.519845 -0.147258
v 0.190210 -0.519845 -0.000000
v 0.147258 -0.519845 -0.147258
v 0.000000 -0.519845 0.190210
v 0.147258 -0.519845 0.147258
v 0.000000 -0.519845 -0.000000
vt 0.3235 0.7046
vt 0.2004 0.7046
vt 0.2282 0.6093
vt 0.3235 0.5815
vt 0.2004 0.5815
vt 0.2004 0.7046
vt 0.0773 0.7046
vt 0.1051 0.6093
vt 0.2282 0.7324
vt 0.3235 0.7046
vt 0.3235 0.8277
vt 0.2004 0.8277
vt 0.2004 0.8277
vt 0.1051 0.7999
vt 0.0773 0.7046
vt 0.2004 0.7046
vt 0.1681 0.8277
vt 0.1681 0.9185
vt 0.0978 0.8980
vt 0.0773 0.8277
vt 0.4144 0.5815
vt 0.4144 0.6723
vt 0.3235 0.6723
vt 0.3440 0.6020
vt 0.3440 0.8657
vt 0.3235 0.7954
vt 0.4144 0.7954
vt 0.4144 0.8863
vt 0.3235 0.7954
vt 0.3440 0.7251
vt 0.4144 0.7046
vt 0.4144 0.7954
vt 0.7454 0.0526
vt 0.7454 0.2440
vt 0.6621 0.2458
vt 0.6185 0.0553
vt 0.2380 0.0526
vt 0.2380 0.2440
vt 0.1547 0.2458
vt 0.1111 0.0553
vt 0.4917 0.0526
vt 0.4917 0.2440
vt 0.4084 0.2458
vt 0.3648 0.0553
vt 0.2380 0.2587
vt 0.2380 0.4502
vt 0.1547 0.4520
vt 0.1111 0.2615
vt 0.1225 0.0422
vt 0.2380 0.0397
vt 0.8214 0.7239
vt 0.8614 0.6960
vt 0.8703 0.7013
vt 0.8240 0.7337
vt 0.9007 0.7895
vt 0.9017 0.7337
vt 0.9220 0.7373
vt 0.9211 0.7898
vt 0.7885 0.6002
vt 0.7485 0.6282
vt 0.7396 0.6228
vt 0.7859 0.5905
vt 0.7485 0.6801
vt 0.7740 0.7239
vt 0.7691 0.7337
vt 0.7396 0.6830
vt 0.8614 0.6440
vt 0.8359 0.6002
vt 0.8408 0.5905
vt 0.8703 0.6412
vt 0.7244 0.6548
vt 0.6967 0.6071
vt 0.7050 0.5905
vt 0.7396 0.6499
vt 0.8794 0.7895
vt 0.8805 0.7337
vt 0.9007 0.7373
vt 0.8998 0.7898
vt 0.8916 0.6464
vt 0.8926 0.5905
vt 0.9129 0.5941
vt 0.9119 0.6466
vt 0.8703 0.6496
vt 0.8713 0.5905
vt 0.8916 0.5937
vt 0.8906 0.6493
vt 0.8445 0.7994
vt 0.8457 0.7339
vt 0.8794 0.7337
vt 0.8782 0.7992
vt 0.6015 0.6940
vt 0.6292 0.7417
vt 0.6209 0.7583
vt 0.5863 0.6989
vt 0.6450 0.6071
vt 0.6015 0.6375
vt 0.5863 0.6284
vt 0.6406 0.5905
vt 0.6809 0.7417
vt 0.7244 0.7113
vt 0.7396 0.7204
vt 0.6853 0.7583
vt 0.7396 0.8667
vt 0.7050 0.9262
vt 0.6986 0.9135
vt 0.7280 0.8630
vt 0.7396 0.7994
vt 0.7408 0.7339
vt 0.7745 0.7337
vt 0.7733 0.7992
vt 0.7745 0.7994
vt 0.7757 0.7339
vt 0.8095 0.7337
vt 0.8083 0.7992
vt 0.8095 0.8029
vt 0.8107 0.7337
vt 0.8445 0.7339
vt 0.8433 0.8032
vt 0.6629 0.8423
vt 0.6440 0.9135
vt 0.6406 0.9262
vt 0.5863 0.8883
vt 0.5979 0.8813
vt 0.6853 0.7583
vt 0.7396 0.7962
vt 0.7280 0.8032
vt 0.6819 0.7711
vt 0.5863 0.8178
vt 0.6209 0.7583
vt 0.6273 0.7711
vt 0.5979 0.8215
vt 0.8107 0.8684
vt 0.8445 0.8686
vt 0.7757 0.8686
vt 0.8095 0.8684
vt 0.8713 0.7054
vt 0.8916 0.7018
vt 0.8926 0.7054
vt 0.9129 0.7022
vt 0.3648 0.2615
vt 0.2380 0.2458
vt 0.3534 0.2484
vt 0.3212 0.4520
vt 0.3648 0.0553
vt 0.3212 0.2458
vt 0.1225 0.2484
vt 0.7408 0.8686
vt 0.7745 0.8684
vt 0.8457 0.8686
vt 0.8794 0.8684
vt 0.8805 0.8486
vt 0.9007 0.8454
vt 0.9017 0.8486
vt 0.9220 0.8454
vt 0.6299 0.0422
vt 0.7454 0.0397
vt 0.6185 0.0553
vt 0.5749 0.2458
vt 0.8722 0.0553
vt 0.8286 0.2458
vt 0.5080 0.3181
vt 0.3648 0.2970
vt 0.4295 0.2458
vt 0.5497 0.2458
vt 0.6511 0.3392
vt 0.6511 0.2785
vt 0.5865 0.3903
vt 0.4662 0.3903
vt 0.3648 0.3577
vt 0.3534 0.0422
vt 0.8608 0.0422
vt 0.4917 0.0397
vt 0.6071 0.0422
vt 0.3762 0.0422
vn 0.0000 1.0000 0.0000
vn -0.9502 0.1426 -0.2771
vn 0.2771 0.1426 -0.9502
vn 0.9502 0.1426 0.2771
vn -0.2771 0.1426 0.9502
vn 0.2501 -0.4500 -0.8573
vn 0.0000 -1.0000 0.0000
vn 0.9425 0.1903 -0.2749
vn 0.1259 -0.8933 0.4315
vn -0.9425 0.1903 0.2749
vn 0.2749 0.1903 0.9425
vn -0.2749 0.1903 -0.9425
vn 0.9600 0.0000 -0.2800
vn -0.1259 -0.8933 -0.4315
vn 0.4315 -0.8933 -0.1259
vn -0.4315 -0.8933 0.1259
vn -0.6522 0.7338 0.1902
vn -0.9600 0.0000 0.2800
vn 0.2800 0.0000 0.9600
vn -0.2800 0.0000 -0.9600
vn 0.1902 0.7338 0.6522
vn -0.1902 0.7338 -0.6522
vn 0.6522 0.7338 -0.1902
vn 0.1902 0.7338 -0.6522
vn -0.1902 0.7338 0.6522
vn 0.2800 0.0000 -0.9600
vn -0.2800 0.0000 0.9600
vn 0.1259 -0.8933 -0.4315
vn 0.2749 0.1903 -0.9425
vn -0.2749 0.1903 0.9425
vn -0.1259 -0.8933 0.4315
vn 0.2501 -0.4500 0.8573
vn 0.2771 0.1426 0.9502
vn -0.2771 0.1426 -0.9502
vn -0.2501 -0.4500 0.8573
vn 0.6522 0.7338 0.1902
vn -0.9600 0.0000 -0.2800
vn -0.6522 0.7338 -0.1902
vn -0.4315 -0.8933 -0.1259
vn 0.4315 -0.8933 0.1259
vn 0.9600 0.0000 0.2800
vn -0.9425 0.1903 -0.2749
vn 0.9425 0.1903 0.2749
vn -0.8573 -0.4500 -0.2501
vn 0.9502 0.1426 -0.2771
vn -0.9502 0.1426 0.2771
vn -0.2501 -0.4500 -0.8573
vn -0.8573 -0.4500 0.2501
vn 0.8573 -0.4500 -0.2501
vn 0.8573 -0.4500 0.2501
usemtl Material.009
s off
f 1/1/1 2/2/1 3/3/1 4/4/1
f 5/5/1 6/6/1 7/7/1 8/8/1
f 9/9/1 10/10/1 11/11/1 12/12/1
f 13/13/1 14/14/1 15/15/1 16/16/1
f 17/17/1 18/18/1 19/19/1 20/20/1
f 21/21/1 22/22/1 23/23/1 24/24/1
f 25/25/1 26/26/1 27/27/1 28/28/1
f 29/29/1 30/30/1 31/31/1 32/32/1
f 75/33/2 76/34/2 36/35/2 35/36/2
f 61/37/3 62/38/3 40/39/3 39/40/3
f 77/41/4 78/42/4 38/43/4 37/44/4
f 63/45/5 64/46/5 34/47/5 33/48/5
f 61/37/6 39/40/6 95/49/6 92/50/6
f 78/51/7 40/52/7 43/53/7 80/54/7
f 80/55/8 43/56/8 47/57/8 82/58/8
f 76/59/7 34/60/7 41/61/7 79/62/7
f 64/63/7 38/64/7 44/65/7 66/66/7
f 62/67/7 36/68/7 42/69/7 65/70/7
f 68/71/9 48/72/9 52/73/9 70/74/9
f 79/75/10 41/76/10 45/77/10 81/78/10
f 66/79/11 44/80/11 48/81/11 68/82/11
f 65/83/12 42/84/12 46/85/12 67/86/12
f 84/87/13 51/88/13 55/89/13 86/90/13
f 67/91/14 46/92/14 50/93/14 69/94/14
f 82/95/15 47/96/15 51/97/15 84/98/15
f 81/99/16 45/100/16 49/101/16 83/102/16
f 85/103/17 53/104/17 57/105/17 87/106/17
f 83/107/18 49/108/18 53/109/18 85/110/18
f 70/111/19 52/112/19 56/113/19 72/114/19
f 69/115/20 50/116/20 54/117/20 71/118/20
f 89/119/1 87/106/1 57/105/1 74/120/1
f 72/121/21 56/122/21 60/123/21 74/120/21
f 71/124/22 54/125/22 58/126/22 73/127/22
f 86/128/23 55/129/23 59/130/23 88/131/23
f 55/129/24 71/124/24 73/127/24 59/130/24
f 53/104/25 72/121/25 74/120/25 57/105/25
f 88/131/1 89/119/1 74/120/1 60/123/1
f 51/132/26 69/115/26 71/118/26 55/133/26
f 49/134/27 70/111/27 72/114/27 53/135/27
f 47/96/28 67/91/28 69/94/28 51/97/28
f 43/136/29 65/83/29 67/86/29 47/137/29
f 41/138/30 66/79/30 68/82/30 45/139/30
f 45/100/31 68/71/31 70/74/31 49/101/31
f 40/52/7 62/67/7 65/70/7 43/53/7
f 34/60/7 64/63/7 66/66/7 41/61/7
f 37/140/32 63/45/32 96/141/32 97/142/32
f 37/140/33 38/143/33 64/46/33 63/45/33
f 35/144/34 36/145/34 62/38/34 61/37/34
f 63/45/35 33/48/35 91/146/35 96/141/35
f 59/130/1 73/127/1 89/119/1 88/131/1
f 56/122/36 86/128/36 88/131/36 60/123/36
f 73/127/1 58/126/1 87/106/1 89/119/1
f 50/147/37 83/107/37 85/110/37 54/148/37
f 54/125/38 85/103/38 87/106/38 58/126/38
f 46/92/39 81/99/39 83/102/39 50/93/39
f 48/72/40 82/95/40 84/98/40 52/73/40
f 52/149/41 84/87/41 86/90/41 56/150/41
f 42/151/42 79/75/42 81/78/42 46/152/42
f 36/68/7 76/59/7 79/62/7 42/69/7
f 44/153/43 80/55/43 82/58/43 48/154/43
f 38/64/7 78/51/7 80/54/7 44/65/7
f 75/33/44 35/36/44 93/155/44 90/156/44
f 39/157/45 40/158/45 78/42/45 77/41/45
f 33/159/46 34/160/46 76/34/46 75/33/46
f 98/161/7 94/162/7 97/163/7 96/164/7
f 90/165/7 98/161/7 96/164/7 91/166/7
f 93/167/7 92/168/7 98/161/7 90/165/7
f 92/168/7 95/169/7 94/162/7 98/161/7
f 35/144/47 61/37/47 92/50/47 93/170/47
f 33/159/48 75/33/48 90/156/48 91/171/48
f 39/157/49 77/41/49 94/172/49 95/173/49
f 77/41/50 37/44/50 97/174/50 94/172/50
