mtllib materials.mtl
v -0.06 -0.06499994 -7.152557E-07
v -0.05196154 -0.06499994 0.02999926
v -0.05196151 -0.08499998 0.02999926
v -0.06 -0.08499998 -7.152557E-07
v -0.03 -0.06499994 0.05196083
v -0.03 -0.08499998 0.0519608
v 0 -0.06499994 0.05999929
v 0 -0.08499998 0.05999929
v 0.03000003 -0.06499994 0.05196083
v 0.03 -0.08499998 0.0519608
v 0.05196154 -0.06499994 0.02999929
v 0.05196154 -0.08499998 0.02999929
v 0.06000006 -0.06499994 -7.152557E-07
v 0.06 -0.08499998 -7.152557E-07
v 0.05196154 -0.06499994 -0.03000069
v 0.05196154 -0.08499998 -0.03000075
v 0.03000003 -0.06499994 -0.05196226
v 0.03 -0.08499998 -0.05196226
v 2.980232E-08 -0.06499994 -0.06000072
v 2.980232E-08 -0.08499998 -0.06000072
v -0.02999997 -0.06499994 -0.05196226
v -0.02999997 -0.08499998 -0.05196226
v -0.05196154 -0.06499994 -0.03000069
v -0.05196154 -0.08499998 -0.03000075
v -0.07607692 0.08500004 -0.04392302
v 2.980232E-08 0.08500004 -0.08784604
v 0.07607692 0.08500004 -0.04392302
v 0.07607692 0.08500004 0.04392296
v 0 0.08500004 0.08784598
v -0.07607692 0.08500004 0.0439229
v -0.03913534 0.08500004 -0.06778455
v -0.06778455 0.08500004 -0.03913534
v 2.980232E-08 0.08500004 -0.07827079
v 0.03913546 0.08500004 -0.06778455
v 0.06778455 0.08500004 -0.03913534
v 0.07827094 0.08500004 0
v 0.06778461 0.08500004 0.0391354
v 0.03913546 0.08500004 0.06778461
v 0 0.08500004 0.07827088
v -0.0391354 0.08500004 0.06778455
v -0.06778461 0.08500004 0.03913537
v -0.07827088 0.08500004 0
v 0.04999998 0.07500005 -0.07000071
v 0.09000003 0.07500005 -7.152557E-07
v 0.03999999 0.07500005 0.07999933
v -0.03999999 0.07500005 0.07999933
v -0.09000006 0.07500005 -7.152557E-07
v -0.05000001 0.07500005 -0.07000071
vn -0.965926 -6.036737E-08 0.2588188
vn -0.7071074 -6.184609E-07 0.7071064
vn -0.2588186 4.40233E-07 0.9659261
vn 0.2588184 -4.562558E-07 0.9659261
vn 0.7071068 -7.100366E-07 0.7071069
vn 0.9659258 -1.565461E-06 0.2588195
vn 0.9659258 -3.825186E-07 -0.2588197
vn 0.7071078 -1.379078E-06 -0.7071059
vn 0.2588185 1.428934E-07 -0.9659261
vn -0.2588186 -1.169037E-08 -0.965926
vn -0.7071073 9.089865E-07 -0.7071065
vn -0.9659261 5.991068E-07 -0.2588187
vn -0.6960065 -0.1764966 -0.6960058
vn 1.748456E-07 -1 -1.748456E-07
vn -0.2547549 -0.1764954 -0.9507626
vn 0.2547548 -0.1764955 -0.9507627
vn 0.6960073 -0.1764966 -0.696005
vn 0.9507614 -0.1764986 -0.2547571
vn 0.9507611 -0.1765008 0.2547567
vn 0.6960056 -0.1765026 0.6960053
vn 0.254755 -0.1765037 0.950761
vn -0.2547552 -0.1765037 0.950761
vn -0.696006 -0.1765026 0.6960049
vn -0.9507614 -0.1765007 0.2547556
vn -0.9507618 -0.1764985 -0.2547558
vn 6.20368E-08 1 5.218248E-09
vn 2.225391E-08 1 1.748456E-07
vn -4.099504E-07 1 2.596589E-07
vn 8.917199E-07 1 1.748457E-07
vn 3.677432E-07 1 5.217403E-09
vn -7.948817E-07 1 2.79434E-08
vn -1.459934E-07 1 5.215964E-09
vn -2.10704E-07 1 1.748456E-07
vn 9.367164E-08 1 2.596608E-07
vn 2.88109E-08 1 1.748456E-07
vn 7.8974E-08 1 5.217099E-09
vn -3.341954E-07 1 2.794343E-08
vn 0.7006011 0.1353385 0.7006011
vn 0.2564368 0.13534 0.9570389
vn -0.2564364 0.1353399 0.9570391
vn -0.7006027 0.1353385 0.7005994
vn -0.9570386 0.1353358 0.2564403
vn -0.9570394 0.1353327 -0.2564388
vn -0.7006028 0.1353302 -0.700601
vn -0.2564369 0.1353286 -0.9570405
vn 0.2564386 0.1353288 -0.9570401
vn 0.7006018 0.1353303 -0.700602
vn 0.9570397 0.1353328 -0.2564378
vn 0.9570389 0.1353358 0.2564387
vn -1.748456E-07 1 1.748456E-07
vn 0.3022923 -0.1641674 -0.9389722
vn 0.7296607 -0.1889142 -0.6571962
vn 0.3749714 0.5694976 -0.7314841
vn 0.4287304 0.6128918 -0.6637425
vn 0.9206863 -0.1972898 -0.3367693
vn 0.9206895 -0.1972904 0.3367604
vn 0.6484457 0.7605715 -0.03239035
vn 0.6484485 0.7605692 0.03239092
vn 0.7200626 -0.1853558 0.6686952
vn 0.1390905 -0.204009 0.9690378
vn 0.3699339 0.7315374 0.5727146
vn 0.3028503 0.7478243 0.5907965
vn -0.1390904 -0.2040092 0.9690378
vn -0.7200631 -0.1853558 0.6686946
vn -0.3028502 0.747826 0.5907944
vn -0.3699326 0.7315395 0.5727128
vn -0.9206892 -0.1972908 0.3367609
vn -0.9206861 -0.1972901 -0.33677
vn -0.6484472 0.7605703 0.03239005
vn -0.6484439 0.760573 -0.03238983
vn -0.7296612 -0.1889146 -0.6571956
vn -0.3022917 -0.1641676 -0.9389723
vn -0.4287271 0.6128955 -0.6637411
vn -0.3749706 0.5695024 -0.731481
usemtl mat16
f 4//1 3//1 2//1 1//1
f 3//2 6//2 5//2 2//2
f 6//3 8//3 7//3 5//3
f 8//4 10//4 9//4 7//4
f 10//5 12//5 11//5 9//5
f 12//6 14//6 13//6 11//6
f 14//7 16//7 15//7 13//7
f 16//8 18//8 17//8 15//8
f 18//9 20//9 19//9 17//9
f 20//10 22//10 21//10 19//10
f 22//11 24//11 23//11 21//11
f 24//12 4//12 1//12 23//12
f 24//14 22//14 20//14 18//14 16//14 14//14 12//14 10//14 8//14 6//14 3//14 4//14
usemtl mat25
f 25//13 21//13 23//13
f 26//15 19//15 21//15
f 26//16 17//16 19//16
f 27//17 15//17 17//17
f 27//18 13//18 15//18
f 28//19 11//19 13//19
f 28//20 9//20 11//20
f 29//21 7//21 9//21
f 29//22 5//22 7//22
f 30//23 2//23 5//23
f 30//24 1//24 2//24
f 25//25 23//25 1//25
f 32//26 31//26 25//26
f 31//27 33//27 26//27
f 33//28 34//28 26//28
f 34//29 35//29 27//29
f 35//30 36//30 27//30
f 36//31 37//31 28//31
f 37//32 38//32 28//32
f 38//33 39//33 29//33
f 39//34 40//34 29//34
f 40//35 41//35 30//35
f 41//36 42//36 30//36
f 42//37 32//37 25//37
f 26//51 43//51 17//51
f 17//52 43//52 27//52
f 34//53 43//53 26//53
f 27//54 43//54 34//54
f 27//55 44//55 13//55
f 13//56 44//56 28//56
f 36//57 44//57 27//57
f 28//58 44//58 36//58
f 28//59 45//59 9//59
f 9//60 45//60 29//60
f 38//61 45//61 28//61
f 29//62 45//62 38//62
f 29//63 46//63 5//63
f 5//64 46//64 30//64
f 40//65 46//65 29//65
f 30//66 46//66 40//66
f 30//67 47//67 1//67
f 1//68 47//68 25//68
f 42//69 47//69 30//69
f 25//70 47//70 42//70
f 25//71 48//71 21//71
f 21//72 48//72 26//72
f 31//73 48//73 25//73
f 26//74 48//74 31//74
usemtl mat21
f 23//38 21//38 31//38 32//38
f 21//39 19//39 33//39 31//39
f 19//40 17//40 34//40 33//40
f 17//41 15//41 35//41 34//41
f 15//42 13//42 36//42 35//42
f 13//43 11//43 37//43 36//43
f 11//44 9//44 38//44 37//44
f 9//45 7//45 39//45 38//45
f 7//46 5//46 40//46 39//46
f 5//47 2//47 41//47 40//47
f 2//48 1//48 42//48 41//48
f 1//49 23//49 32//49 42//49
usemtl mat22
f 1//50 2//50 5//50 7//50 9//50 11//50 13//50 15//50 17//50 19//50 21//50 23//50
